<?xml version="1.0" standalone="no"?>
<!DOCTYPE svg PUBLIC "-//W3C//DTD SVG 20010904//EN"
 "http://www.w3.org/TR/2001/REC-SVG-20010904/DTD/svg10.dtd">
<svg version="1.0" xmlns="http://www.w3.org/2000/svg"
 width="300.000000pt" height="280.000000pt" viewBox="0 0 300.000000 280.000000"
 preserveAspectRatio="xMidYMid meet">
<metadata>
Created by potrace 1.10, written by Peter Selinger 2001-2011
</metadata>
<g transform="translate(0.000000,280.000000) scale(0.100000,-0.100000)"
fill="#f50505" stroke="none">
<path d="M1311 2672 c-6 -11 -13 -60 -17 -111 -7 -88 -8 -92 -33 -96 -27 -5
-175 -43 -201 -51 -10 -3 -35 22 -75 75 -33 44 -67 80 -76 81 -24 0 -199 -103
-199 -117 0 -7 18 -54 39 -104 l40 -92 -27 -20 c-15 -11 -55 -49 -89 -85 l-61
-64 -85 36 c-46 20 -93 36 -103 36 -14 0 -34 -26 -72 -92 -28 -50 -52 -97 -52
-104 0 -7 38 -40 83 -74 l84 -62 -24 -65 c-13 -36 -27 -88 -31 -116 l-7 -52
-105 -13 c-58 -8 -108 -19 -112 -26 -4 -6 -8 -32 -8 -58 l0 -48 185 0 c102 0
188 -1 193 -2 4 -2 10 26 13 62 8 81 12 91 52 121 23 17 45 24 79 24 27 0 48
2 48 3 0 2 -9 15 -20 29 -93 118 -6 308 152 329 92 13 191 -45 223 -131 23
-59 16 -145 -13 -185 -30 -40 -28 -46 16 -42 76 7 142 -68 142 -163 l0 -50 87
2 87 1 -3 111 -3 111 76 0 c65 0 79 3 103 24 25 21 29 33 33 98 6 84 23 98 68
55 40 -37 70 -49 121 -50 57 -1 101 22 138 70 24 31 28 46 28 97 0 51 -4 67
-28 98 -34 44 -81 68 -137 68 -46 0 -73 -11 -111 -47 -17 -15 -36 -23 -50 -21
-22 3 -24 9 -29 73 -3 39 -9 76 -13 83 -18 27 -69 44 -128 40 l-59 -3 0 218 0
217 -55 0 c-43 0 -56 -4 -64 -18z m82 -36 c3 -8 7 -94 8 -192 2 -212 3 -214
92 -214 78 0 107 -27 107 -98 0 -50 27 -102 54 -102 7 0 39 16 72 36 51 31 65
35 108 31 41 -4 54 -11 87 -46 31 -33 39 -49 39 -79 0 -52 -30 -103 -76 -129
-53 -29 -105 -20 -172 30 -60 45 -112 11 -112 -74 0 -69 -31 -99 -103 -99 -83
0 -96 -16 -98 -115 -1 -44 -4 -86 -6 -92 -3 -8 -25 -13 -59 -13 -36 0 -55 4
-56 13 0 6 -2 23 -3 37 -6 65 -47 121 -107 145 -34 13 -39 19 -34 38 18 59 18
136 1 180 -20 54 -91 124 -138 138 -60 18 -149 14 -192 -9 -39 -19 -105 -76
-105 -89 0 -3 -6 -14 -14 -22 -17 -19 -22 -104 -11 -178 7 -50 6 -53 -13 -53
-12 0 -37 -13 -55 -30 -19 -16 -36 -27 -39 -25 -3 3 -5 -1 -6 -7 -2 -24 -36
-133 -43 -138 -4 -3 -72 -4 -152 -2 -134 3 -145 4 -150 23 -8 32 17 46 97 54
91 8 119 29 130 96 4 24 16 72 26 107 24 77 22 83 -65 152 -36 28 -65 56 -65
62 0 6 17 41 38 79 33 62 40 69 67 69 17 0 41 -7 53 -16 12 -8 22 -13 22 -9 0
3 13 -1 30 -10 57 -29 75 -21 171 74 49 49 89 94 89 101 0 6 -11 39 -24 73
-45 115 -44 124 18 152 17 7 45 23 62 34 l31 21 72 -79 c76 -84 81 -86 148
-60 16 6 57 17 92 25 35 7 72 21 82 30 11 10 22 43 29 87 6 40 14 80 16 90 6
21 50 23 57 3z"/>
<path d="M1273 2011 c-24 -17 -43 -36 -43 -42 0 -6 15 -26 34 -45 38 -38 64
-42 157 -24 30 6 81 11 114 11 63 1 95 17 95 49 0 28 -25 53 -53 51 -41 -2
-48 -2 -107 8 -156 25 -151 25 -197 -8z m167 -16 c52 -8 109 -12 126 -9 42 8
62 -16 34 -41 -15 -13 -23 -15 -33 -7 -10 8 -45 6 -133 -7 -119 -18 -119 -18
-149 3 -16 12 -32 22 -35 24 -9 6 56 51 75 51 11 1 63 -6 115 -14z"/>
<path d="M1470 2494 c0 -177 2 -196 16 -190 9 4 39 3 67 0 37 -5 60 -16 85
-39 30 -27 36 -40 40 -87 l4 -56 35 24 c94 63 228 30 293 -73 51 -80 37 -197
-33 -264 -74 -71 -203 -79 -274 -15 l-23 19 0 -50 c0 -86 -64 -143 -160 -143
l-50 0 0 -85 0 -85 110 0 110 0 0 -65 c0 -70 17 -117 47 -131 10 -4 49 -10 88
-13 77 -7 95 -25 55 -58 -33 -27 -60 -88 -60 -133 0 -147 174 -222 279 -122
71 68 75 163 10 237 -48 54 -38 69 48 75 100 7 116 24 123 126 l5 76 213 -2
212 -1 0 54 c0 32 -5 59 -12 64 -7 6 -42 13 -78 17 -130 13 -127 12 -135 64
-6 41 -32 132 -49 172 -5 12 16 32 73 74 44 33 82 65 85 72 6 16 -98 198 -116
202 -7 1 -53 -14 -102 -35 l-88 -38 -88 88 -88 88 39 92 c22 50 37 97 35 103
-6 14 -178 114 -198 114 -7 0 -40 -36 -72 -80 -33 -44 -62 -80 -66 -80 -4 0
-33 9 -64 20 -32 11 -80 23 -107 26 -31 4 -53 13 -58 23 -5 9 -12 54 -16 99
-5 50 -13 89 -22 98 -9 8 -34 14 -64 14 l-49 0 0 -196z m87 145 c7 -9 15 -41
19 -70 8 -75 22 -116 42 -124 16 -7 199 -56 234 -63 10 -2 82 76 97 106 24 46
55 46 132 1 38 -23 69 -46 69 -51 0 -6 -6 -24 -14 -41 -31 -73 -47 -128 -41
-146 5 -17 124 -144 168 -179 14 -12 27 -10 84 8 37 12 72 26 78 31 17 16 53
10 60 -11 3 -11 12 -26 19 -33 8 -7 23 -32 35 -54 24 -48 22 -51 -63 -119 -64
-51 -69 -67 -46 -151 10 -37 21 -82 23 -99 7 -44 23 -71 49 -80 28 -9 29 -9
100 -18 62 -8 83 -24 73 -56 -6 -19 -14 -20 -183 -21 -190 -1 -209 -2 -225
-18 -5 -5 -13 -42 -16 -80 -8 -85 -23 -100 -97 -101 -49 0 -67 -8 -92 -41 -14
-19 0 -63 30 -89 9 -8 21 -38 26 -67 8 -45 6 -57 -12 -90 -52 -92 -184 -93
-236 -1 -30 54 -24 112 19 169 37 51 38 65 9 96 -17 18 -32 23 -73 23 -38 0
-60 6 -79 21 -23 18 -26 28 -26 82 -1 90 -10 98 -116 103 -49 2 -92 8 -97 13
-4 4 -7 28 -5 51 l3 44 60 13 c66 15 105 45 136 105 19 38 30 41 71 23 56 -24
212 31 245 86 10 16 20 29 24 29 11 0 29 85 29 135 0 78 -59 169 -134 206 -34
17 -56 20 -136 17 -95 -3 -95 -3 -98 22 -7 49 -86 103 -167 113 l-30 4 -3 139
c-1 76 0 149 3 162 6 26 33 26 52 1z"/>
<path d="M1937 1601 c-27 -34 -28 -40 -22 -101 4 -36 11 -83 16 -105 4 -22 9
-59 9 -82 0 -44 19 -73 49 -73 31 0 51 33 50 81 0 24 4 76 10 114 16 105 13
136 -13 169 -35 42 -65 41 -99 -3z m79 -14 c21 -32 21 -32 3 -152 -11 -71 -14
-121 -8 -123 15 -6 10 -28 -10 -46 -18 -16 -20 -16 -35 5 -11 16 -12 26 -5 35
7 8 5 50 -7 132 l-17 119 23 32 c13 17 26 31 29 31 3 0 15 -15 27 -33z"/>
<path d="M820 1938 c-49 -34 -72 -71 -78 -126 -5 -54 13 -101 54 -139 25 -23
31 -48 14 -58 -5 -3 -39 -7 -75 -8 -56 -2 -69 -6 -92 -30 -25 -24 -28 -35 -30
-100 l-2 -72 -213 -2 -213 -1 -3 -41 c-5 -70 4 -76 123 -90 103 -13 105 -13
105 -39 0 -34 29 -150 45 -182 13 -25 11 -28 -71 -89 -46 -34 -84 -69 -84 -77
0 -7 17 -42 38 -76 20 -35 44 -75 51 -90 8 -16 21 -28 30 -28 8 0 54 16 101
36 l86 35 91 -89 c79 -78 89 -91 80 -108 -22 -37 -67 -149 -67 -165 0 -24 190
-131 207 -117 7 6 36 42 65 82 28 39 54 73 55 76 2 2 32 -5 66 -17 34 -12 87
-27 118 -33 l56 -11 13 -102 c7 -56 18 -105 24 -109 6 -4 32 -8 58 -8 l47 0 3
190 3 190 -50 0 c-96 1 -159 55 -160 135 0 25 -3 45 -7 45 -4 0 -24 -11 -44
-25 -64 -43 -180 -30 -243 28 -32 30 -71 114 -71 156 0 132 113 233 246 218
25 -2 59 -14 75 -26 39 -29 44 -27 44 22 1 81 67 137 162 137 l48 0 -3 86 -4
86 -109 -4 -109 -3 0 73 c0 40 -5 82 -10 93 -17 31 -64 49 -130 49 -54 0 -60
2 -60 21 0 12 13 37 30 55 72 82 51 212 -42 258 -47 24 -128 21 -168 -6z m139
-7 c5 0 25 -16 44 -35 60 -58 57 -142 -9 -217 -8 -8 -14 -29 -14 -45 0 -36 34
-54 101 -54 72 0 91 -21 93 -102 3 -92 15 -105 103 -103 38 1 80 -3 95 -8 25
-8 28 -14 26 -50 -1 -54 -12 -67 -55 -67 -62 0 -112 -40 -153 -123 -10 -20
-18 -26 -29 -20 -29 13 -134 15 -174 3 -123 -37 -194 -199 -140 -321 53 -119
194 -175 313 -125 12 5 22 -6 37 -38 27 -56 80 -96 140 -107 25 -5 49 -11 52
-14 6 -7 2 -296 -5 -307 -10 -15 -43 -8 -54 11 -5 11 -10 37 -10 58 0 55 -30
133 -51 133 -10 0 -21 4 -24 10 -3 6 -17 10 -30 10 -13 0 -53 10 -88 23 -57
21 -67 22 -93 9 -16 -7 -50 -43 -77 -78 -26 -35 -54 -64 -61 -64 -7 0 -24 8
-37 19 -13 10 -44 28 -69 41 -25 12 -46 24 -48 25 -1 1 11 40 28 86 16 45 30
92 30 104 0 26 -152 183 -185 191 -13 3 -49 -5 -86 -20 -105 -42 -105 -42
-154 44 l-44 75 32 29 c131 117 130 114 97 216 -11 34 -20 74 -20 87 0 14 -13
37 -28 53 -22 22 -41 30 -88 35 -90 10 -109 18 -109 46 -1 13 4 27 10 31 5 4
92 8 192 8 174 0 183 1 203 22 15 17 20 35 20 78 0 79 21 100 99 100 44 0 62
5 79 20 30 28 28 42 -13 101 -29 42 -35 60 -35 102 0 46 3 54 43 91 38 37 47
41 90 40 26 -1 51 -2 56 -3z"/>
<path d="M873 1588 c-6 -7 -13 -51 -17 -98 -6 -86 -13 -145 -21 -168 -6 -18
13 -63 37 -89 35 -37 40 -26 11 19 -14 24 -26 47 -25 53 0 5 8 57 16 114 11
73 13 108 5 117 -12 14 8 54 27 54 21 0 39 -30 28 -47 -7 -11 -4 -55 8 -136
18 -119 18 -120 -2 -142 -22 -24 -27 -47 -7 -40 19 8 47 63 47 93 0 15 -5 43
-10 62 -6 19 -12 73 -15 119 -3 54 -9 87 -17 93 -19 12 -54 10 -65 -4z"/>
<path d="M1470 1290 l0 -110 -66 0 c-106 0 -148 -41 -144 -137 3 -55 2 -60
-15 -67 -9 -3 -29 7 -48 23 -48 42 -70 51 -124 51 -57 0 -99 -23 -138 -74 -54
-71 -29 -187 49 -235 62 -38 162 -25 210 28 21 23 61 28 69 8 3 -7 3 -25 0
-40 -9 -44 7 -98 34 -123 23 -21 36 -24 100 -24 l74 0 -3 -215 -3 -215 50 0
c28 0 55 4 62 8 6 4 17 53 24 109 l12 101 66 12 c36 7 89 21 116 31 28 11 51
19 52 19 1 0 29 -36 63 -79 33 -44 64 -83 70 -86 9 -6 195 99 205 115 2 4 -14
50 -36 103 l-40 95 52 48 c71 67 75 70 98 100 l21 26 96 -40 c52 -23 101 -39
107 -36 9 4 102 160 115 194 3 7 -121 109 -156 129 -10 6 -10 14 -1 37 6 16
21 70 33 119 l23 90 94 10 c52 6 100 14 107 18 7 5 12 30 12 63 l0 54 -190 0
-190 0 0 -50 c0 -96 -57 -160 -143 -160 l-50 0 19 -22 c69 -78 55 -211 -29
-285 -102 -90 -260 -62 -327 57 -36 65 -35 151 3 208 l27 42 -42 0 c-88 0
-158 83 -143 171 l7 39 -91 0 -91 0 0 -110z m140 65 c5 -11 11 -33 12 -50 4
-61 56 -117 130 -139 14 -4 15 -11 8 -38 -38 -143 23 -269 155 -318 65 -24
177 5 243 64 52 46 85 162 63 219 -16 41 -5 74 27 80 15 4 39 16 53 29 29 26
61 100 53 122 -3 8 5 24 18 35 21 20 32 22 148 20 159 -3 162 -4 158 -43 -3
-31 -3 -31 -83 -41 -102 -14 -122 -25 -135 -78 -6 -23 -20 -75 -31 -115 -10
-40 -19 -77 -19 -82 0 -13 99 -108 120 -115 31 -10 30 -32 -1 -92 -38 -73 -58
-95 -78 -87 -9 3 -27 8 -41 10 -14 3 -34 11 -46 19 -12 7 -38 17 -58 21 -37 6
-39 5 -132 -89 l-94 -95 16 -39 c8 -21 19 -47 24 -58 23 -54 30 -88 19 -101
-6 -7 -40 -30 -76 -50 l-65 -36 -39 41 c-21 22 -39 43 -39 46 0 3 -15 20 -32
36 -37 34 -34 34 -176 -3 -52 -14 -102 -34 -112 -44 -14 -14 -21 -41 -26 -102
-6 -76 -9 -83 -31 -88 -44 -11 -48 5 -50 197 -2 99 -7 188 -12 198 -8 13 -26
20 -71 24 -83 7 -107 25 -115 84 -10 81 -14 92 -40 109 -23 15 -27 14 -82 -20
-45 -28 -69 -36 -106 -36 -41 0 -52 5 -87 39 -23 22 -40 49 -41 62 -5 100 38
159 121 167 39 3 54 -1 103 -31 90 -54 127 -35 127 67 0 66 33 96 105 96 46 0
60 4 80 25 22 21 25 33 25 95 0 88 10 105 61 105 28 0 41 -5 49 -20z"/>
<path d="M1547 954 c-4 -4 -143 -17 -193 -18 -57 -1 -84 -17 -84 -51 0 -33 27
-50 79 -51 25 -1 87 -6 138 -13 102 -12 131 -6 158 36 20 29 9 29 -35 0 l-33
-24 -116 18 c-77 12 -120 14 -128 8 -13 -11 -53 8 -53 26 0 18 40 37 54 26 9
-8 47 -6 130 6 117 16 117 16 146 -5 32 -24 40 -27 40 -12 0 17 -41 48 -71 52
-16 3 -30 4 -32 2z"/>
</g>
</svg>
